<svg xmlns="http://www.w3.org/2000/svg" width="118" height="120" viewBox="0 0 118 120"><g transform="translate(-515.447 -79.772)"><path d="M584.107,84.038s25.11-12.76,37.108,13.036C630.5,117.045,636,160.868,623.725,185c-5.1,10.024-14.508,19.971-44.361,8.6,0,0-79.234-24.964-59.706-56.861C519.657,136.737,541.142,99.847,584.107,84.038Z" fill="#fff"/><path d="M602.087,199.772c-6.393,0-14.173-1.729-23.123-5.139-2.113-.662-53.277-17.023-62.2-40.689-2.263-6-1.61-11.987,1.939-17.785.206-.35,22.145-37.362,64.956-53.141a35.027,35.027,0,0,1,14.375-3.246c7.463,0,17.718,2.92,24.191,16.836,9.291,19.978,14.88,64.54,2.493,88.892C621.34,192.145,615.713,199.772,602.087,199.772ZM598.036,81.991a33.067,33.067,0,0,0-13.42,3.034l-.122.053c-42.069,15.48-63.656,51.85-63.869,52.216-3.188,5.206-3.778,10.538-1.768,15.869,8.538,22.661,60.321,39.213,60.845,39.376,8.757,3.335,16.266,5.014,22.386,5.014,12.337,0,17.357-6.6,20.641-13.055,12.092-23.767,6.579-67.377-2.527-86.959C615.4,87.223,607.946,81.991,598.036,81.991Z" fill="#101011"/><path d="M530.26,169.743s21.2-20.246,30.969-48.262l57.752,28.293s-3.348,39.385-18.972,48.815C600.009,198.59,566.251,200.254,530.26,169.743Z" fill="#101011"/><path d="M557.515,98.865s-2.833-5.031,1.218-6.24c0,0,3.44-.805,5.465,6.442" fill="#fff"/><path d="M564.2,99.872a.81.81,0,0,1-.779-.589c-1.757-6.29-4.5-5.876-4.521-5.871a2,2,0,0,0-1.372,1.13c-.52,1.272.329,3.268.7,3.931a.8.8,0,0,1-.312,1.1.814.814,0,0,1-1.1-.309c-.07-.124-1.7-3.066-.786-5.318a3.6,3.6,0,0,1,2.475-2.087c.22-.054,4.271-.9,6.48,7a.8.8,0,0,1-.565.992A.824.824,0,0,1,564.2,99.872Z" fill="#101011"/><path d="M607.822,190.34s-2.894-2.453-.68-4.113c0,0,1.932-1.273,4.835,2.726" fill="#fff"/><path d="M607.822,190.868a.533.533,0,0,1-.345-.127c-.071-.06-1.747-1.5-1.7-3.091a2.351,2.351,0,0,1,1.045-1.845c.122-.082,2.421-1.521,5.586,2.841a.526.526,0,0,1-.12.736.536.536,0,0,1-.741-.118c-2.52-3.47-4.109-2.6-4.121-2.588a1.3,1.3,0,0,0-.586,1,3.657,3.657,0,0,0,1.327,2.26.527.527,0,0,1,.059.744A.534.534,0,0,1,607.822,190.868Z" fill="#101011"/><path d="M571.6,91.261s-1.864-4.335,1.533-4.968c0,0,2.868-.358,3.882,5.708" fill="#fff"/><path d="M577.013,92.659a.658.658,0,0,1-.652-.55c-.881-5.266-3.164-5.181-3.164-5.16a1.638,1.638,0,0,0-1.214.8c-.535,1-.021,2.686.223,3.253a.655.655,0,0,1-.347.864.666.666,0,0,1-.869-.345c-.046-.107-1.115-2.64-.174-4.391a2.946,2.946,0,0,1,2.192-1.484c.186-.025,3.552-.364,4.658,6.248a.655.655,0,0,1-.544.755A.5.5,0,0,1,577.013,92.659Z" fill="#101011"/><path d="M575,91.536s2.158-4.2,4.822-2.009c0,0,2.11,1.963-1.931,6.619" fill="#fff"/><path d="M577.892,96.8a.658.658,0,0,1-.5-1.088c3.509-4.04,1.984-5.7,1.967-5.717a1.635,1.635,0,0,0-1.394-.417c-1.107.224-2.088,1.7-2.372,2.253a.662.662,0,0,1-1.18-.6c.053-.1,1.326-2.541,3.283-2.942a2.963,2.963,0,0,1,2.549.727c.136.124,2.555,2.48-1.848,7.555A.667.667,0,0,1,577.892,96.8Z" fill="#101011"/><path d="M589.95,134.015s.682,3.374-1.84,3.324c0,0-2.1-.17-1.92-4.654" fill="#fff"/><path d="M588.166,137.821H588.1c-.133-.011-2.592-.266-2.392-5.155a.483.483,0,0,1,.966.038c-.16,3.892,1.47,4.156,1.487,4.159a1.126,1.126,0,0,0,.989-.394,3.294,3.294,0,0,0,.325-2.357.484.484,0,0,1,.949-.191,4.3,4.3,0,0,1-.534,3.164A2.135,2.135,0,0,1,588.166,137.821Z" fill="#101011"/><path d="M556.6,128.606s3.768-1.553,4.284,1.357c0,0,.282,2.456-4.976,3.264" fill="#fff"/><path d="M555.905,133.794a.566.566,0,0,1-.087-1.126c4.563-.7,4.5-2.634,4.494-2.655a1.393,1.393,0,0,0-.68-1.043,3.957,3.957,0,0,0-2.818.16.573.573,0,0,1-.743-.308.561.561,0,0,1,.307-.737c.092-.04,2.3-.931,3.8-.11a2.531,2.531,0,0,1,1.263,1.89c.018.156.282,3.04-5.448,3.922A.48.48,0,0,1,555.905,133.794Z" fill="#101011"/><path d="M556.607,131.789s3.611,1.884,1.69,4.14c0,0-1.718,1.787-5.706-1.712" fill="#fff"/><path d="M556.907,136.945c-1.069,0-2.62-.488-4.692-2.3a.561.561,0,0,1-.05-.8.571.571,0,0,1,.8-.049c3.481,3.054,4.9,1.758,4.919,1.746a1.406,1.406,0,0,0,.381-1.2c-.186-.953-1.453-1.8-1.924-2.049a.563.563,0,0,1-.241-.763.575.575,0,0,1,.769-.238c.09.047,2.185,1.158,2.514,2.834a2.515,2.515,0,0,1-.652,2.173A2.542,2.542,0,0,1,556.907,136.945Z" fill="#101011"/><path d="M628.388,156.705s3.325-2.31,4.452.405c0,0,.8,2.327-4.127,4.23" fill="#fff"/><path d="M628.713,161.9a.57.57,0,0,1-.528-.359.561.561,0,0,1,.324-.729c4.277-1.654,3.8-3.516,3.791-3.534a1.392,1.392,0,0,0-.886-.871,3.958,3.958,0,0,0-2.7.756.571.571,0,0,1-.789-.141.562.562,0,0,1,.14-.783c.083-.057,2.028-1.392,3.666-.912a2.512,2.512,0,0,1,1.633,1.567c.053.145.93,2.889-4.444,4.967A.569.569,0,0,1,628.713,161.9Z" fill="#101011"/><path d="M629.677,158.973s3.914,1.06,2.534,3.661c0,0-1.284,2.1-5.911-.449" fill="#fff"/><path d="M630.218,164.005a8.917,8.917,0,0,1-4.191-1.328.561.561,0,0,1-.22-.765.567.567,0,0,1,.769-.219c4.015,2.211,5.148.652,5.158.637a1.383,1.383,0,0,0,.105-1.236,3.9,3.9,0,0,0-2.311-1.578.563.563,0,0,1-.4-.691.57.57,0,0,1,.7-.394c.1.025,2.371.658,3.053,2.216a2.5,2.5,0,0,1-.167,2.249A2.805,2.805,0,0,1,630.218,164.005Z" fill="#101011"/><path d="M595.732,198.406a1.111,1.111,0,0,1-.876-1.8c.125-.157,12.456-15.868,13.9-33.795a1.116,1.116,0,0,1,2.225.177c-1.5,18.612-13.849,34.334-14.373,34.993A1.116,1.116,0,0,1,595.732,198.406Z" fill="#fff"/><path d="M610.984,158.465a1.046,1.046,0,0,1-.184-.017,1.106,1.106,0,0,1-.916-1.276,24.341,24.341,0,0,0-.008-5.242,1.115,1.115,0,0,1,2.217-.244,25.97,25.97,0,0,1-.008,5.853A1.114,1.114,0,0,1,610.984,158.465Z" fill="#fff"/><path d="M600.941,117.969s3.531,3.791-1.582,5.27" fill="#fff"/><path d="M599.359,123.794a.554.554,0,0,1-.156-1.087c1.331-.386,2.109-.95,2.311-1.679.341-1.219-.97-2.668-.982-2.682a.551.551,0,0,1,.028-.784.561.561,0,0,1,.79.029c.071.077,1.749,1.9,1.242,3.734-.314,1.124-1.348,1.946-3.077,2.446A.552.552,0,0,1,599.359,123.794Z" fill="#101011"/><path d="M601.032,122.962s3.254,2.5-.465,5.085" fill="#fff"/><path d="M600.568,128.6a.559.559,0,0,1-.458-.237.551.551,0,0,1,.14-.772,2.96,2.96,0,0,0,1.543-2.179,2.93,2.93,0,0,0-1.1-2.013.556.556,0,0,1,.681-.879,4,4,0,0,1,1.536,2.919,3.958,3.958,0,0,1-2.021,3.061A.555.555,0,0,1,600.568,128.6Z" fill="#101011"/><path d="M532.307,140.621s-2.326,4.252,3.44,5.177c0,0-1.209,1.847,1.394,1.847" fill="#fff"/><path d="M537.142,148.2c-1.059,0-1.757-.29-2.068-.861a1.526,1.526,0,0,1-.1-1.128A4.6,4.6,0,0,1,531.623,144a4.294,4.294,0,0,1,.195-3.644.556.556,0,0,1,.979.528,3.233,3.233,0,0,0-.17,2.633c.44.88,1.519,1.463,3.208,1.734a.554.554,0,0,1,.38.85c-.1.16-.256.538-.161.712.074.134.4.28,1.087.28a.554.554,0,1,1,0,1.109Z" fill="#101011"/><path d="M608.454,99.886s2.037-.652,2.423,1.179c0,0,2.755-1.113,3.108,3.292" fill="#fff"/><path d="M613.985,104.911a.557.557,0,0,1-.556-.511c-.111-1.4-.493-2.34-1.1-2.714a1.527,1.527,0,0,0-1.24-.107.561.561,0,0,1-.472-.025.547.547,0,0,1-.283-.375.992.992,0,0,0-.444-.706,1.83,1.83,0,0,0-1.263-.059.555.555,0,1,1-.341-1.056,2.931,2.931,0,0,1,2.165.156,1.952,1.952,0,0,1,.8.9,2.525,2.525,0,0,1,1.666.333c.939.574,1.487,1.775,1.631,3.571a.556.556,0,0,1-.513.595Z" fill="#101011"/><path d="M618.657,138.327s2-.763,2.486,1.043c0,0,2.691-1.268,3.29,3.112" fill="#fff"/><path d="M624.432,143.037a.558.558,0,0,1-.552-.479c-.189-1.393-.624-2.308-1.254-2.648a1.526,1.526,0,0,0-1.244-.039.568.568,0,0,1-.474,0,.558.558,0,0,1-.3-.359.985.985,0,0,0-.479-.677,1.828,1.828,0,0,0-1.27.01.555.555,0,1,1-.4-1.036,2.922,2.922,0,0,1,2.169.035,1.957,1.957,0,0,1,.849.851,2.525,2.525,0,0,1,1.68.238c.97.521,1.585,1.69,1.83,3.473a.557.557,0,0,1-.478.626C624.484,143.034,624.459,143.037,624.432,143.037Z" fill="#101011"/><path d="M544.583,120.1s-4.465-.461-4.278,4.068" fill="#fff"/><path d="M540.3,124.717a.556.556,0,0,1-.558-.531,4.341,4.341,0,0,1,1.222-3.515,5.11,5.11,0,0,1,3.671-1.128.555.555,0,1,1-.113,1.1,4,4,0,0,0-2.8.839,3.288,3.288,0,0,0-.866,2.654.556.556,0,0,1-.534.577Z" fill="#101011"/></g></svg>